<svg xmlns="http://www.w3.org/2000/svg" xml:space="preserve" fill-rule="evenodd" stroke-linecap="round" stroke-linejoin="round" stroke-miterlimit="1.5" clip-rule="evenodd" viewBox="0 0 512 512">
  <path fill="none" d="M6 6h500v500H6z" />
  <g transform="translate(6 6)">
    <path fill="#baab9a" stroke="#5c3911" stroke-width="20"
      d="M466 169.986C468 130.436 392.511 60 386.962 94l-28.976 4c-2.55 13-4.986 55.436-4.986 71.986v266.951c0 16.55 13.436 29.986 29.986 29.986h53.028c16.55 0 29.986-13.436 29.986-29.986V169.986Z" />
    <path fill="#baab9a" stroke="#5c3911" stroke-width="20"
      d="M466 169.986C468 130.436 392.511 60 386.962 94l-28.976 4C355.436 111 314 257.45 314 274l39 162.937c0 16.55 13.436 29.986 29.986 29.986h53.028c16.55 0 29.986-13.436 29.986-29.986V169.986Zm-432.961 1.307c-2-39.55 73.489-109.986 79.038-75.986l28.976 4c2.55 13 4.986 55.436 4.986 71.986v266.95c0 16.55-13.436 29.987-29.986 29.987H63.025c-16.55 0-29.986-13.437-29.986-29.987v-266.95Z" />
    <path fill="#baab9a" stroke="#5c3911" stroke-width="20"
      d="M33.039 171.293c-2-39.55 73.489-109.986 79.038-75.986l28.976 4c2.55 13 50.635 118.143 50.635 134.693l-45.649 204.243c0 16.55-13.436 29.987-29.986 29.987H63.025c-16.55 0-29.986-13.437-29.986-29.987v-266.95Z" />
    <path fill="#baab9a" stroke="#5c3910" stroke-width="20"
      d="M85.374 152.275C86.399 84.7 160.942 30.956 251.732 32.333c90.791 1.377 163.669 57.357 162.645 124.932-1.025 67.575-75.568 121.319-166.359 119.942-90.79-1.377-163.669-57.357-162.644-124.932Z" />
    <path fill="#baab9a" stroke="#5c3910" stroke-width="20"
      d="M85.374 152.275C86.399 84.7 160.942 30.956 251.732 32.333c90.791 1.377 163.669 57.357 162.645 124.932-1.025 67.575-75.568 121.319-166.359 119.942-90.79-1.377-163.669-57.357-162.644-124.932Z" />
    <path fill="#baab9a" stroke="#5c3910" stroke-width="20"
      d="M112.976 350.704c.985-64.989 63.164-116.821 138.766-115.675 75.601 1.147 136.179 54.841 135.194 119.831-.986 64.989-63.165 116.821-138.766 115.675-75.602-1.147-136.18-54.841-135.194-119.831Z" />
    <path fill="#baab9a" stroke="#5c3910" stroke-width="20"
      d="M112.976 350.704c.985-64.989 63.164-116.821 138.766-115.675 75.601 1.147 136.179 54.841 135.194 119.831-.986 64.989-63.165 116.821-138.766 115.675-75.602-1.147-136.18-54.841-135.194-119.831Z" />
    <path fill="#060300"
      d="M176.036 369.734a7.756 7.756 0 0 0-8.436 11.057c10.425 20.872 44.457 36.199 84.845 36.225 40.859.025 73.824-15.697 83.361-36.967a7.486 7.486 0 0 0-8.277-10.382c-20.544 4.237-63.513 12.804-75.084 12.485-15.604-.432-56.252-8.326-76.409-12.418Z" />
    <path fill="url(#a)" d="M223.596 396.942c-2.666 6.537-4.069 13.952-4.069 21.5 0 23.733 13.607 43.001 30.368 43.001 16.76 0 30.367-19.268 30.367-43.001 0-7.548-1.403-14.963-4.068-21.5h-52.598Z" />
    <ellipse cx="247.578" cy="313.391" fill="#060300" rx="28.684" ry="33.391" />
    <ellipse cx="191.688" cy="165.661" fill="#060300" rx="36.312" ry="36.891" />
    <ellipse cx="302.804" cy="166.161" fill="#060300" rx="36.804" ry="37.391" />
    <path fill="#fff" stroke="#5c3911" stroke-width=".45"
      d="m196.168 166.278 2.638 2.704-2.099 1.096 2.375 1.432-2.085 2.35-2.376-1.431-.631 1.98-3.927-1.251.631-1.981-2.766-.207-.341-3.124 2.765.207-1.078-2.108 3.717-.679 1.078 2.108 2.099-1.096Zm109.335-.214 1.043 3.631-2.368-.028 1.415 2.385-2.95 1.083-1.415-2.386-1.494 1.446-2.866-2.962 1.494-1.446-2.338-1.492 1.178-2.913 2.338 1.492.049-2.368 3.595 1.162-.049 2.368 2.368.028Z" />
  </g>
  <defs>
    <linearGradient id="a" x1="0" x2="1" y1="0" y2="0" gradientTransform="rotate(-90.049 348.126 93.744) scale(55.09212)" gradientUnits="userSpaceOnUse">
      <stop offset="0" stop-color="#f83735" />
      <stop offset=".38" stop-color="#ca2227" />
      <stop offset="1" stop-color="#390008" />
    </linearGradient>
  </defs>
</svg>
