<?xml version="1.0" encoding="UTF-8" standalone="no"?>
<!DOCTYPE svg PUBLIC "-//W3C//DTD SVG 1.1//EN" "http://www.w3.org/Graphics/SVG/1.1/DTD/svg11.dtd">
<svg width="100%" height="100%" viewBox="0 0 512 512" version="1.1" xmlns="http://www.w3.org/2000/svg" xmlns:xlink="http://www.w3.org/1999/xlink" xml:space="preserve" xmlns:serif="http://www.serif.com/" style="fill-rule:evenodd;clip-rule:evenodd;stroke-linecap:round;stroke-linejoin:round;stroke-miterlimit:1.5;">
    <g id="Artboard1" transform="matrix(1,0,0,1,6,6)">
        <rect x="0" y="0" width="500" height="500" style="fill:none;"/>
    </g>
    <g transform="matrix(1,0,0,1,6,6)">
        <g>
            <g id="Layer1">
                <path d="M466,169.986C468,130.436 392.511,60 386.962,94L357.986,98C355.436,111 353,153.436 353,169.986L353,436.937C353,453.487 366.436,466.923 382.986,466.923L436.014,466.923C452.564,466.923 466,453.487 466,436.937L466,169.986Z" style="fill:rgb(186,171,154);stroke:rgb(92,57,17);stroke-width:20px;"/>
                <path d="M466,169.986C468,130.436 392.511,60 386.962,94L357.986,98C355.436,111 314,257.45 314,274L353,436.937C353,453.487 366.436,466.923 382.986,466.923L436.014,466.923C452.564,466.923 466,453.487 466,436.937L466,169.986Z" style="fill:rgb(186,171,154);stroke:rgb(92,57,17);stroke-width:20px;"/>
            </g>
            <g id="Layer11" serif:id="Layer1">
                <path d="M33.039,171.293C31.039,131.743 106.528,61.307 112.077,95.307L141.053,99.307C143.603,112.307 146.039,154.743 146.039,171.293L146.039,438.243C146.039,454.793 132.603,468.23 116.053,468.23L63.025,468.23C46.475,468.23 33.039,454.793 33.039,438.243L33.039,171.293Z" style="fill:rgb(186,171,154);stroke:rgb(92,57,17);stroke-width:20px;"/>
                <path d="M33.039,171.293C31.039,131.743 106.528,61.307 112.077,95.307L141.053,99.307C143.603,112.307 191.688,217.45 191.688,234L146.039,438.243C146.039,454.793 132.603,468.23 116.053,468.23L63.025,468.23C46.475,468.23 33.039,454.793 33.039,438.243L33.039,171.293Z" style="fill:rgb(186,171,154);stroke:rgb(92,57,17);stroke-width:20px;"/>
            </g>
        </g>
        <g>
            <path d="M85.374,152.275C86.399,84.7 160.942,30.956 251.732,32.333C342.523,33.71 415.401,89.69 414.377,157.265C413.352,224.84 338.809,278.584 248.018,277.207C157.228,275.83 84.349,219.85 85.374,152.275Z" style="fill:rgb(186,171,154);stroke:rgb(92,57,16);stroke-width:20px;"/>
            <path d="M85.374,152.275C86.399,84.7 160.942,30.956 251.732,32.333C342.523,33.71 415.401,89.69 414.377,157.265C413.352,224.84 338.809,278.584 248.018,277.207C157.228,275.83 84.349,219.85 85.374,152.275Z" style="fill:rgb(186,171,154);stroke:rgb(92,57,16);stroke-width:20px;"/>
        </g>
        <g>
            <path d="M112.976,350.704C113.961,285.715 176.14,233.883 251.742,235.029C327.343,236.176 387.921,289.87 386.936,354.86C385.95,419.849 323.771,471.681 248.17,470.535C172.568,469.388 111.99,415.694 112.976,350.704Z" style="fill:rgb(186,171,154);stroke:rgb(92,57,16);stroke-width:20px;"/>
            <path d="M112.976,350.704C113.961,285.715 176.14,233.883 251.742,235.029C327.343,236.176 387.921,289.87 386.936,354.86C385.95,419.849 323.771,471.681 248.17,470.535C172.568,469.388 111.99,415.694 112.976,350.704Z" style="fill:rgb(186,171,154);stroke:rgb(92,57,16);stroke-width:20px;"/>
        </g>
        <g id="nose-and-tongue" serif:id="nose and tongue">
            <path d="M176.036,369.734C173.14,369.168 170.173,370.296 168.383,372.642C166.593,374.988 166.289,378.147 167.6,380.791C178.025,401.663 212.057,416.99 252.445,417.016C293.304,417.041 326.269,401.319 335.806,380.049C336.936,377.499 336.554,374.531 334.814,372.349C333.075,370.168 330.268,369.134 327.529,369.667C306.985,373.904 264.016,382.471 252.445,382.152C236.841,381.72 196.193,373.826 176.036,369.734Z" style="fill:rgb(6,3,0);"/>
            <path d="M223.596,396.942C220.93,403.479 219.527,410.894 219.527,418.442C219.527,442.175 233.134,461.443 249.895,461.443C266.655,461.443 280.262,442.175 280.262,418.442C280.262,410.894 278.859,403.479 276.194,396.942L223.596,396.942Z" style="fill:url(#_Linear1);"/>
        </g>
        <ellipse cx="247.578" cy="313.391" rx="28.684" ry="33.391" style="fill:rgb(6,3,0);"/>
        <ellipse cx="191.688" cy="165.661" rx="36.312" ry="36.891" style="fill:rgb(6,3,0);"/>
        <ellipse cx="302.804" cy="166.161" rx="36.804" ry="37.391" style="fill:rgb(6,3,0);"/>
        <path d="M196.168,166.278L198.806,168.982L196.707,170.078L199.082,171.51L196.997,173.86L194.621,172.429L193.99,174.409L190.063,173.158L190.694,171.177L187.928,170.97L187.587,167.846L190.352,168.053L189.274,165.945L192.991,165.266L194.069,167.374L196.168,166.278Z" style="fill:white;stroke:rgb(92,57,17);stroke-width:0.45px;"/>
        <path d="M305.503,166.064L306.546,169.695L304.178,169.667L305.593,172.052L302.643,173.135L301.228,170.749L299.734,172.195L296.868,169.233L298.362,167.787L296.024,166.295L297.202,163.382L299.54,164.874L299.589,162.506L303.184,163.668L303.135,166.036L305.503,166.064Z" style="fill:white;stroke:rgb(92,57,17);stroke-width:0.45px;"/>
    </g>
    <defs>
        <linearGradient id="_Linear1" x1="0" y1="0" x2="1" y2="0" gradientUnits="userSpaceOnUse" gradientTransform="matrix(-0.04753,-55.0921,55.0921,-0.04753,254.682,441.951)"><stop offset="0" style="stop-color:rgb(248,55,53);stop-opacity:1"/><stop offset="0.38" style="stop-color:rgb(202,34,39);stop-opacity:1"/><stop offset="1" style="stop-color:rgb(57,0,8);stop-opacity:1"/></linearGradient>
    </defs>
</svg>
